<svg width="current" height="current" viewBox="0 0 60 60" fill="current" xmlns="http://www.w3.org/2000/svg">
  <path d="M30,0 A30,30 0 1,0 30,60 A30,30 0 1,0 30,0 Z" fill="#4C4C4C" stroke="white" stroke-width="1"/>
  <path d="M42.7493 37.9005L35.4762 30.6274L42.7493 23.3543C43.6417 22.4618 43.6417 21.0143 42.7493 20.1218L41.133 18.5056C40.2406 17.6131 38.793 17.6131 37.9005 18.5056L30.6274 25.7787L23.3543 18.5056C22.4619 17.6131 21.0143 17.6131 20.1219 18.5056L18.5056 20.1218C17.6131 21.0143 17.6131 22.4618 18.5056 23.3543L25.7787 30.6274L18.5056 37.9005C17.6131 38.793 17.6131 40.2405 18.5056 41.133L20.1219 42.7492C21.0143 43.6417 22.4619 43.6417 23.3543 42.7492L30.6274 35.4762L37.9005 42.7492C38.793 43.6417 40.2406 43.6417 41.133 42.7492L42.7493 41.133C43.6417 40.2405 43.6417 38.793 42.7493 37.9005Z" fill="white"/>
</svg>
