<svg width="current" height="current" viewBox="0 0 60 60" fill="current" xmlns="http://www.w3.org/2000/svg">
<path d="M60 30C60 46.5685 46.5685 60 30 60C13.4315 60 0 46.5685 0 30C0 13.4315 13.4315 0 30 0C46.5685 0 60 13.4315 60 30Z" fill="#4C4C4C"/>
<path d="M42.7493 37.9005L35.4762 30.6274L42.7493 23.3543C43.6417 22.4618 43.6417 21.0143 42.7493 20.1218L41.133 18.5056C40.2406 17.6131 38.793 17.6131 37.9005 18.5056L30.6274 25.7787L23.3543 18.5056C22.4619 17.6131 21.0143 17.6131 20.1219 18.5056L18.5056 20.1218C17.6131 21.0143 17.6131 22.4618 18.5056 23.3543L25.7787 30.6274L18.5056 37.9005C17.6131 38.793 17.6131 40.2405 18.5056 41.133L20.1219 42.7492C21.0143 43.6417 22.4619 43.6417 23.3543 42.7492L30.6274 35.4762L37.9005 42.7492C38.793 43.6417 40.2406 43.6417 41.133 42.7492L42.7493 41.133C43.6417 40.2405 43.6417 38.793 42.7493 37.9005Z" fill="white"/>
<path d="M35.1226 30.2739L34.7691 30.6274L35.1226 30.981L42.3957 38.2541C43.0929 38.9513 43.0929 40.0822 42.3957 40.7794L40.7795 42.3957C40.0823 43.0929 38.9513 43.0929 38.2541 42.3957L30.981 35.1226L30.6274 34.769L30.2739 35.1226L23.0008 42.3957C22.3036 43.0929 21.1726 43.0929 20.4754 42.3957L18.8592 40.7794C18.162 40.0822 18.162 38.9513 18.8592 38.2541L26.1323 30.981L26.4858 30.6274L26.1323 30.2739L18.8592 23.0008C18.162 22.3036 18.162 21.1726 18.8592 20.4754L20.4754 18.8591C21.1726 18.1619 22.3036 18.1619 23.0008 18.8591L30.2739 26.1322L30.6274 26.4858L30.981 26.1322L38.2541 18.8591C38.9513 18.1619 40.0823 18.1619 40.7795 18.8591L42.3957 20.4754C43.0929 21.1726 43.0929 22.3036 42.3957 23.0008L35.1226 30.2739ZM59.5 30C59.5 46.2924 46.2924 59.5 30 59.5C13.7076 59.5 0.5 46.2924 0.5 30C0.5 13.7076 13.7076 0.5 30 0.5C46.2924 0.5 59.5 13.7076 59.5 30ZM43.1028 37.547L36.1833 30.6274L43.1028 23.7079C44.1906 22.6201 44.1906 20.856 43.1028 19.7683L41.4866 18.152C40.3988 17.0643 38.6347 17.0643 37.547 18.152L30.6274 25.0716L23.7079 18.152C22.6202 17.0643 20.856 17.0643 19.7683 18.152L18.1521 19.7683C17.0643 20.856 17.0643 22.6201 18.1521 23.7079L25.0716 30.6274L18.1521 37.547C17.0643 38.6347 17.0643 40.3988 18.1521 41.4866L19.7683 43.1028C20.856 44.1905 22.6202 44.1905 23.7079 43.1028L30.6274 36.1833L37.547 43.1028C38.6347 44.1905 40.3988 44.1905 41.4866 43.1028L43.1028 41.4866C44.1906 40.3988 44.1906 38.6347 43.1028 37.547Z" stroke="white"/>
</svg>
