<svg width="current" height="current" viewBox="0 0 98 98" fill="none" xmlns="http://www.w3.org/2000/svg">
<path d="M49 98C42.3869 98 35.9652 96.708 29.9264 94.1527C24.0885 91.6836 18.8535 88.1426 14.3555 83.6445C9.85742 79.1465 6.31641 73.9115 3.84727 68.0736C1.29199 62.0348 0 55.6131 0 49C0 47.0955 1.54082 45.5547 3.44531 45.5547C5.3498 45.5547 6.89063 47.0955 6.89063 49C6.89063 54.6848 8.00078 60.1973 10.202 65.3939C12.3266 70.4088 15.3604 74.9164 19.2268 78.7828C23.0932 82.6492 27.6008 85.6926 32.6156 87.8076C37.8027 89.9992 43.3152 91.1094 49 91.1094C54.6848 91.1094 60.1973 89.9992 65.394 87.798C70.4088 85.6734 74.9164 82.6396 78.7828 78.7732C82.6492 74.9068 85.6926 70.3992 87.8076 65.3844C89.9992 60.1973 91.1094 54.6848 91.1094 49C91.1094 43.3152 89.9992 37.8027 87.7981 32.6061C85.6806 27.6033 82.6162 23.0569 78.7732 19.2172C74.9378 15.3691 70.3904 12.3039 65.3844 10.1924C60.1973 8.00078 54.6848 6.89062 49 6.89062C47.0955 6.89062 45.5547 5.3498 45.5547 3.44531C45.5547 1.54082 47.0955 0 49 0C55.6131 0 62.0348 1.29199 68.0736 3.84727C73.9115 6.31641 79.1465 9.85742 83.6445 14.3555C88.1426 18.8535 91.674 24.098 94.1432 29.9264C96.6984 35.9652 97.9904 42.3869 97.9904 49C97.9904 55.6131 96.6984 62.0348 94.1432 68.0736C91.6836 73.9115 88.1426 79.1465 83.6445 83.6445C79.1465 88.1426 73.902 91.674 68.0736 94.1432C62.0348 96.708 55.6131 98 49 98Z" fill="#F9DEB3"/>
</svg>
